<?xml version="1.0" encoding="UTF-8" standalone="no"?>
<!-- Created with Inkscape (http://www.inkscape.org/) -->

<svg
   width="300"
   height="100"
   viewBox="0 0 79.375 26.458333"
   version="1.1"
   id="svg1"
   xmlns="http://www.w3.org/2000/svg"
   xmlns:svg="http://www.w3.org/2000/svg">
  <defs
     id="defs1" />
  <g
     id="layer1">
    <path
       id="text4"
       style="font-size:9.50553px;font-family:Roboto;-inkscape-font-specification:Roboto;letter-spacing:0px;fill:#808080;stroke-width:0.51801"
       d="M 3.3631022,0.71571859 V 12.500529 H 4.9252808 V 7.8791056 h 2.7843261 c 0.8903316,0 1.6431225,-0.1377007 2.2582601,-0.4128947 0.615139,-0.2805895 1.081554,-0.6879485 1.399915,-1.2221476 0.318362,-0.5341989 0.47749,-1.1788161 0.47749,-1.9342488 0,-0.6960773 -0.159128,-1.3140389 -0.47749,-1.8536337 C 11.049421,1.91119 10.583006,1.4847581 9.967867,1.1771891 9.3527294,0.86961998 8.5999385,0.71571859 7.7096069,0.71571859 Z m 10.4572428,0 V 12.500529 h 1.562179 V 7.0533162 h 5.940722 v 5.4472128 h 1.554427 V 0.71571859 H 21.323246 V 5.7825928 H 15.382524 V 0.71571859 Z m 11.938806,0 V 26.062492 h 1.561662 L 27.32133,0.71571859 Z m 4.394564,0 V 12.500529 h 1.562179 5.585188 V 11.229806 H 31.715894 V 0.71571859 Z M 4.9252808,1.9947103 h 2.7843261 c 0.6097421,0 1.1033309,0.1105289 1.4810466,0.3317627 0.3777158,0.2158379 0.6531185,0.5022129 0.8257895,0.8583455 0.178079,0.3561327 0.267167,0.7363195 0.267167,1.1410156 0,0.4424677 -0.0891,0.8364994 -0.267167,1.1818401 C 9.843772,5.8530149 9.5683693,6.1226728 9.1906535,6.3169271 8.8129378,6.5111803 8.319349,6.6083822 7.7096069,6.6083822 H 4.9252808 Z m 0.069763,12.1212237 c -0.6043466,0 -1.1517617,0.081 -1.6427937,0.242879 -0.4910321,0.161878 -0.9145916,0.388681 -1.2707235,0.680062 -0.3507364,0.285985 -0.6203942,0.6228 -0.8092529,1.011308 -0.1888589,0.388509 -0.28370365,0.812585 -0.28370365,1.27124 0,0.458656 0.0890994,0.866016 0.26716715,1.222148 0.1780659,0.356134 0.4343972,0.671518 0.7689453,0.946712 0.3345481,0.275194 0.7366797,0.520551 1.2061279,0.736389 0.4694465,0.210441 0.9954355,0.402481 1.5781983,0.575159 0.5557834,0.161877 1.014616,0.321013 1.3761434,0.47749 0.3669247,0.156482 0.6527836,0.320832 0.8578288,0.49351 0.2104426,0.17267 0.3562498,0.367072 0.4371826,0.58291 0.086338,0.21044 0.1291911,0.452927 0.1291911,0.728121 -3e-7,0.383113 -0.099557,0.715217 -0.2992066,0.995805 -0.1942543,0.28059 -0.480113,0.496418 -0.8578288,0.647506 -0.3777157,0.151089 -0.839421,0.226343 -1.3844116,0.226343 -0.3777158,0 -0.7417034,-0.04285 -1.0924398,-0.129191 C 3.630127,24.732594 3.3199693,24.59202 3.0447754,24.403162 2.7749769,24.214303 2.5614981,23.977045 2.4050212,23.69106 2.2485441,23.39968 2.1704102,23.051893 2.1704102,22.647196 H 0.61649984 c 0,0.588158 0.12672839,1.106047 0.38033854,1.553911 0.25900572,0.442467 0.60156532,0.814554 1.02784422,1.116727 0.4316761,0.302173 0.9095737,0.528973 1.4329875,0.680062 0.5288041,0.151091 1.065247,0.22686 1.6102376,0.22686 0.6205349,0 1.1817952,-0.07289 1.6836182,-0.218591 0.5072186,-0.151087 0.9417522,-0.364561 1.3032796,-0.639755 0.3615292,-0.275194 0.6392866,-0.606779 0.8335409,-0.995288 0.1942475,-0.388507 0.291455,-0.823039 0.291455,-1.303279 0,-0.458655 -0.078134,-0.868886 -0.234611,-1.230416 C 8.7941037,21.470503 8.5592023,21.144143 8.2408407,20.858158 7.9278746,20.566777 7.5286158,20.30522 7.042981,20.073193 6.5573445,19.841167 5.9798849,19.630565 5.3107869,19.441707 4.8251522,19.306807 4.4073363,19.16676 4.0565999,19.021061 3.711259,18.875369 3.4248853,18.716248 3.1982544,18.543571 2.9770226,18.370902 2.8126722,18.184598 2.7047445,17.984949 2.6022231,17.779903 2.5507487,17.553101 2.5507487,17.304887 c 0,-0.366925 0.086738,-0.693284 0.2594157,-0.979269 0.1780677,-0.285985 0.4477255,-0.512789 0.8092529,-0.680061 0.3615292,-0.16727 0.8198431,-0.250631 1.3756266,-0.250631 0.5881583,0 1.0741624,0.09956 1.4572754,0.299206 0.3831113,0.194255 0.66897,0.464429 0.8578288,0.80977 0.1888572,0.339944 0.2831869,0.731103 0.2831869,1.173572 h 1.5539103 c 0,-0.61514 -0.1614846,-1.192599 -0.4852417,-1.732194 C 8.3382466,15.400289 7.8660874,14.960529 7.2455526,14.625981 6.630415,14.286039 5.8799799,14.115934 4.9950439,14.115934 Z m 6.1758501,0.161747 v 11.784811 h 1.553911 v -4.597136 l -0.150379,-4.941817 3.865397,9.538953 h 1.18184 l 3.873149,-9.525 -0.149862,4.927864 v 4.597136 h 1.553911 V 14.277681 h -0.485242 -1.521871 l -3.852478,9.607683 -3.861263,-9.607683 h -0.671794 z m 17.782377,0 v 1.278992 h 3.779615 v 10.505819 h 1.53789 V 15.556673 h 3.7884 v -1.278992 z m 10.854118,0 v 11.784811 h 1.562179 v -5.447213 h 5.940723 v 5.447213 h 1.55391 V 14.277681 h -1.55391 v 5.066875 h -5.940723 v -5.066875 z" />
    <g
       id="g21" />
  </g>
</svg>
