<?xml version="1.0" encoding="UTF-8" standalone="no"?>
<!-- Created with Inkscape (http://www.inkscape.org/) -->

<svg
   width="300"
   height="100"
   viewBox="0 0 79.375 26.458333"
   version="1.1"
   id="svg1"
   inkscape:version="1.4.3 (0d15f75, 2025-12-25)"
   sodipodi:docname="logo_original.svg"
   xmlns:inkscape="http://www.inkscape.org/namespaces/inkscape"
   xmlns:sodipodi="http://sodipodi.sourceforge.net/DTD/sodipodi-0.dtd"
   xmlns:xlink="http://www.w3.org/1999/xlink"
   xmlns="http://www.w3.org/2000/svg"
   xmlns:svg="http://www.w3.org/2000/svg">
  <sodipodi:namedview
     id="namedview1"
     pagecolor="#ffffff"
     bordercolor="#000000"
     borderopacity="0.25"
     inkscape:showpageshadow="2"
     inkscape:pageopacity="0.0"
     inkscape:pagecheckerboard="0"
     inkscape:deskcolor="#d1d1d1"
     inkscape:document-units="mm"
     inkscape:zoom="4.0668163"
     inkscape:cx="92.701507"
     inkscape:cy="55.694672"
     inkscape:window-width="1920"
     inkscape:window-height="1009"
     inkscape:window-x="-8"
     inkscape:window-y="-8"
     inkscape:window-maximized="1"
     inkscape:current-layer="layer1" />
  <defs
     id="defs1">
    <linearGradient
       id="linearGradient3"
       inkscape:collect="always">
      <stop
         style="stop-color:#ffffff;stop-opacity:1;"
         offset="0"
         id="stop3" />
      <stop
         style="stop-color:#ffffff;stop-opacity:0;"
         offset="1"
         id="stop4" />
    </linearGradient>
    <linearGradient
       inkscape:collect="always"
       xlink:href="#linearGradient3"
       id="linearGradient4"
       x1="11.043015"
       y1="2.3666632"
       x2="11.043015"
       y2="22.860273"
       gradientUnits="userSpaceOnUse" />
  </defs>
  <g
     inkscape:label="Layer 1"
     inkscape:groupmode="layer"
     id="layer1">
    <g
       id="g7"
       transform="matrix(1.1226999,0,0,1.1226999,-1.9575061,-0.93993453)">
      <g
         id="g5">
        <path
           id="text2"
           style="font-style:normal;font-variant:normal;font-weight:normal;font-stretch:normal;font-size:19.1264px;font-family:Roboto;-inkscape-font-specification:Roboto;writing-mode:lr-tb;direction:ltr;fill:#000000;stroke-width:0.597699"
           d="m 2.640625,2.3730469 c 0,4.7089844 0,9.4179691 0,14.1269531 0.953776,0 1.9075521,0 2.8613281,0 0,-1.777344 0,-3.554688 0,-5.332031 1.2234697,-0.02397 2.451821,0.05479 3.671875,-0.05469 -0.7681904,1.687874 -0.092169,3.828611 1.5113879,4.765729 1.581233,1.145086 3.649718,1.22329 5.279185,2.253738 0.993178,0.701074 0.532381,2.445015 -0.66222,2.630855 -1.310805,0.332037 -3.138512,0.232403 -3.847535,-1.108515 -0.284013,-0.396936 -0.02174,-1.132486 -0.296833,-1.393369 -0.917839,0 -1.8356776,0 -2.7535161,0 -0.057418,1.3635 0.3532445,2.7874 1.4348153,3.685513 2.0122618,1.724759 5.1168538,1.957248 7.4490898,0.770254 1.903468,-0.909267 2.621028,-3.431137 1.673932,-5.268813 -1.000041,-1.931026 -3.292745,-2.527527 -5.210181,-3.101017 -0.879157,-0.301837 -2.202464,-0.790326 -2.013672,-1.955078 0.164188,-1.352161 1.823873,-1.572473 2.916613,-1.390763 1.106263,0.0664 1.942562,1.091916 1.836916,2.185925 -0.08753,0.761104 1.029311,0.249898 1.521862,0.398198 0.489183,-0.12039 1.595094,0.354393 1.324014,-0.499684 C 19.396262,10.727047 17.347027,8.7343774 15.066849,8.4910202 14.444895,8.3794872 13.701153,8.4384642 13.146484,8.4433594 13.981071,6.3521848 13.312121,3.5937545 11.21076,2.5307548 9.2740452,1.4729956 6.9888047,1.9554487 4.8855469,1.84375 c -0.7483073,0 -1.4966146,0 -2.2449219,0 0,0.1764323 0,0.3528646 0,0.5292969 z M 8.1601562,4.3789062 C 9.3083446,4.2661631 10.54234,5.0217791 10.609375,6.25 10.795997,7.3314836 10.084177,8.509229 8.9322028,8.5840838 7.7946054,8.7066031 6.6445546,8.6134276 5.5019531,8.6425781 c 0,-1.4212239 0,-2.8424479 0,-4.2636719 0.8860677,0 1.7721354,10e-8 2.6582031,0 z" />
        <path
           id="path3"
           style="font-style:normal;font-variant:normal;font-weight:normal;font-stretch:normal;font-size:19.1264px;font-family:Roboto;-inkscape-font-specification:Roboto;writing-mode:lr-tb;direction:ltr;fill:url(#linearGradient4);stroke-width:0.597699"
           d="M 3.1708656,2.3734985 V 15.971118 h 1.8024737 v -5.332491 h 3.212724 c 0.795967,0 1.496339,-0.09566 2.1016807,-0.286287 -0.232119,0.248642 -0.4213847,0.524307 -0.5684407,0.826823 -0.217911,0.448275 -0.327112,0.936846 -0.327112,1.46606 0,0.529214 0.103049,0.999331 0.308509,1.41025 0.205459,0.410919 0.5007527,0.775428 0.8867667,1.092956 0.386015,0.317528 0.849981,0.600519 1.391647,0.849561 0.541665,0.242816 1.148665,0.463775 1.821077,0.663009 0.641283,0.186781 1.170872,0.370832 1.588017,0.551387 0.423371,0.180555 0.753014,0.370241 0.989604,0.569474 0.242815,0.199234 0.410971,0.423269 0.504362,0.672311 0.09962,0.242815 0.149345,0.523247 0.149345,0.840775 0,0.442049 -0.114835,0.825013 -0.345199,1.148767 -0.224138,0.323755 -0.554298,0.572396 -0.99012,0.746725 -0.435823,0.174329 -0.967972,0.261999 -1.596802,0.261999 -0.435823,0 -0.856212,-0.05025 -1.260905,-0.149861 -0.398467,-0.105843 -0.756308,-0.267331 -1.073836,-0.485242 -0.311303,-0.217911 -0.557385,-0.492192 -0.73794,-0.822172 -0.180555,-0.336206 -0.270784,-0.737625 -0.270784,-1.204578 H 8.9627603 c 0,0.678639 0.146109,1.276411 0.438733,1.793173 0.29885,0.510535 0.6941167,0.940151 1.1859737,1.28881 0.498084,0.348658 1.049203,0.610119 1.65313,0.784448 0.610152,0.174329 1.229971,0.261483 1.858801,0.261483 0.715995,0 1.363495,-0.08408 1.942517,-0.252181 0.585248,-0.174329 1.086123,-0.420412 1.503267,-0.73794 0.417145,-0.317528 0.738078,-0.700492 0.962215,-1.148767 0.224138,-0.448275 0.335897,-0.94915 0.335897,-1.503267 0,-0.529214 -0.09023,-1.002407 -0.270784,-1.419552 C 18.398181,17.43342 18.127493,17.056608 17.760156,16.726628 17.399046,16.390421 16.938155,16.08846 16.377812,15.82074 15.817468,15.55302 15.151513,15.310014 14.379484,15.092102 13.81914,14.936451 13.33672,14.774963 12.932027,14.60686 12.533561,14.438757 12.2034,14.254706 11.941907,14.055473 c -0.255268,-0.199234 -0.444954,-0.414042 -0.569475,-0.644405 -0.118294,-0.23659 -0.177766,-0.498051 -0.177766,-0.784449 0,-0.42337 0.09946,-0.799666 0.298689,-1.129646 0.20546,-0.329981 0.517165,-0.591958 0.93431,-0.784965 0.417145,-0.193008 0.946218,-0.289388 1.5875,-0.289388 0.678639,0 1.238986,0.115351 1.681035,0.345715 0.442049,0.224137 0.772209,0.535326 0.99012,0.933793 0.217911,0.392241 0.326595,0.843904 0.326595,1.354439 h 1.793172 c 0,-0.709768 -0.18661,-1.37624 -0.560172,-1.998844 C 17.872352,10.428893 17.327384,9.9213499 16.611389,9.5353353 15.90162,9.1430947 15.036236,8.9472575 14.015165,8.9472575 c -0.697316,0 -1.329438,0.093305 -1.896008,0.2800862 -0.02569,0.00847 -0.05111,0.017063 -0.07648,0.025838 0.136022,-0.1546884 0.25734,-0.3217544 0.364319,-0.5012614 0.367336,-0.6163782 0.551387,-1.3602593 0.551387,-2.2319051 0,-0.8031594 -0.184051,-1.5162834 -0.551387,-2.1388876 C 12.039658,3.7522977 11.501358,3.2606502 10.791589,2.9057658 10.081821,2.5508814 9.2133603,2.3734985 8.1860633,2.3734985 Z m 1.8024737,1.4753622 h 3.212724 c 0.703543,0 1.273117,0.1276546 1.70894,0.3829223 0.4358227,0.2490417 0.7531637,0.5792017 0.9523967,0.9901205 0.205459,0.4109187 0.308508,0.8497624 0.308508,1.3167155 0,0.5105354 -0.103049,0.9647576 -0.308508,1.3632243 C 10.648167,8.3003099 10.330826,8.6120157 9.8950033,8.8361532 9.4591803,9.0602907 8.8896063,9.17205 8.1860633,9.17205 h -3.212724 z" />
      </g>
      <g
         id="g6"
         transform="translate(0,3.9124413)">
        <text
           xml:space="preserve"
           style="font-style:normal;font-variant:normal;font-weight:normal;font-stretch:normal;font-size:8.46667px;font-family:Roboto;-inkscape-font-specification:Roboto;letter-spacing:1.71979px;writing-mode:lr-tb;direction:ltr;fill:#ffffff;stroke-width:0.264583"
           x="28.951975"
           y="7.8471866"
           id="text4"><tspan
             sodipodi:role="line"
             id="tspan4"
             style="letter-spacing:1.71979px;fill:#000000;stroke-width:0.264583"
             x="28.951975"
             y="7.8471866"
             dx="-1.21">PHIL</tspan></text>
        <text
           xml:space="preserve"
           style="font-style:normal;font-variant:normal;font-weight:normal;font-stretch:normal;font-size:8.46667px;font-family:Roboto;-inkscape-font-specification:Roboto;writing-mode:lr-tb;direction:ltr;fill:#ffffff;stroke-width:0.264583"
           x="27.030903"
           y="15.54912"
           id="text5"><tspan
             sodipodi:role="line"
             id="tspan5"
             style="fill:#000000;stroke-width:0.264583"
             x="27.030903"
             y="15.54912">SMITH</tspan></text>
      </g>
    </g>
  </g>
</svg>
